<?xml version="1.0" standalone="no"?>
<!DOCTYPE svg PUBLIC "-//W3C//DTD SVG 20010904//EN"
 "http://www.w3.org/TR/2001/REC-SVG-20010904/DTD/svg10.dtd">
<svg version="1.0" xmlns="http://www.w3.org/2000/svg"
 width="2216.000000pt" height="368.000000pt" viewBox="0 0 2216.000000 368.000000"
 preserveAspectRatio="xMidYMid meet">

<g transform="translate(0.000000,368.000000) scale(0.100000,-0.100000)"
fill="#000000" stroke="none">
<path d="M809 3024 c-409 -355 -757 -658 -772 -673 l-28 -28 278 -76 c153 -43
389 -108 525 -146 l247 -68 398 344 c219 190 406 352 415 361 16 16 7 44 -148
471 -90 250 -166 456 -168 458 -1 2 -338 -288 -747 -643z"/>
<path d="M1602 3650 c3 -9 1775 -1866 1837 -1924 l31 -30 0 982 0 982 -936 0
c-602 0 -934 -3 -932 -10z"/>
<path d="M4985 3474 c-475 -69 -825 -307 -1047 -714 -82 -149 -153 -376 -182
-580 -43 -296 -25 -661 44 -932 81 -316 240 -588 442 -755 139 -115 254 -181
414 -236 189 -66 383 -90 607 -75 219 14 392 62 585 163 280 145 503 426 606
766 22 73 66 265 66 290 0 5 -92 9 -205 9 l-204 0 -11 -42 c-49 -200 -120
-363 -208 -478 -189 -250 -466 -365 -800 -332 -264 25 -446 106 -603 269 -81
84 -117 136 -174 255 -155 325 -191 889 -80 1273 147 508 575 801 1088 746
269 -29 453 -121 593 -295 67 -84 98 -144 135 -256 l27 -85 207 -3 206 -2 -7
47 c-13 89 -54 217 -103 318 -157 325 -445 541 -836 627 -71 16 -136 21 -310
23 -121 2 -233 1 -250 -1z"/>
<path d="M13257 3183 c-4 -3 -7 -147 -7 -320 l0 -313 -155 0 -155 0 0 -160 0
-160 155 0 154 0 3 -822 c4 -913 1 -874 72 -1003 89 -162 288 -208 654 -149
l32 5 0 148 0 149 -122 4 c-136 4 -185 20 -222 71 -21 28 -21 38 -24 813 l-2
784 185 0 186 0 -3 158 -3 157 -182 3 -183 2 0 320 0 320 -188 0 c-104 0 -192
-3 -195 -7z"/>
<path d="M21400 2870 l0 -320 -155 0 -155 0 0 -160 0 -160 155 0 154 0 3 -832
3 -833 23 -67 c43 -127 121 -212 225 -243 97 -30 270 -30 465 1 l32 5 0 148 0
149 -117 4 c-141 5 -201 26 -230 80 -17 31 -18 77 -18 808 l0 775 183 3 182 2
0 160 0 160 -185 0 -185 0 0 320 0 320 -190 0 -190 0 0 -320z"/>
<path d="M7500 2599 c-385 -68 -666 -331 -798 -749 -45 -144 -64 -273 -64
-445 0 -640 352 -1118 881 -1195 118 -18 353 -8 460 19 218 55 411 188 542
373 148 211 226 454 236 743 6 178 -4 285 -43 438 -86 344 -282 601 -559 733
-142 67 -230 86 -430 90 -93 1 -195 -2 -225 -7z m345 -334 c109 -23 189 -68
276 -155 157 -156 239 -400 239 -705 0 -211 -33 -365 -111 -524 -114 -231
-301 -351 -549 -351 -176 0 -304 51 -421 169 -66 65 -86 95 -129 182 -154 318
-154 730 0 1048 43 87 63 117 129 182 87 87 162 130 272 154 85 18 208 18 294
0z"/>
<path d="M9855 2590 c-178 -46 -346 -160 -461 -310 -21 -28 -42 -50 -46 -50
-4 0 -8 72 -8 160 l0 160 -180 0 -180 0 0 -1145 0 -1145 195 0 194 0 3 728 c4
818 0 775 83 947 100 209 288 328 520 329 266 0 397 -95 462 -338 15 -54 17
-155 20 -863 l4 -803 195 0 195 0 -4 857 c-4 924 -3 912 -58 1058 -83 222
-278 375 -534 420 -121 21 -311 19 -400 -5z"/>
<path d="M11772 2595 c-162 -29 -321 -95 -444 -186 -142 -106 -247 -266 -278
-426 -18 -91 -8 -281 19 -364 38 -120 155 -269 295 -377 93 -72 292 -184 449
-252 568 -248 769 -403 807 -623 l12 -67 259 0 258 0 -5 67 c-15 169 -50 276
-134 401 -81 121 -155 200 -271 287 -144 108 -256 171 -564 315 -510 238 -615
320 -615 476 0 49 5 68 29 106 130 205 585 223 785 30 55 -54 93 -125 102
-194 l7 -48 258 0 259 0 0 33 c-1 120 -49 287 -115 399 -116 198 -313 339
-563 405 -83 22 -123 26 -282 29 -131 2 -209 -1 -268 -11z"/>
<path d="M15070 2594 c-169 -46 -314 -164 -440 -359 l-45 -69 -3 192 -2 192
-180 0 -180 0 0 -1145 0 -1145 190 0 189 0 3 728 3 727 27 81 c67 196 223 345
410 389 36 8 112 15 176 15 l112 0 -2 203 -3 202 -100 2 c-64 1 -120 -3 -155
-13z"/>
<path d="M18375 2599 c-273 -40 -477 -149 -584 -314 -68 -103 -121 -284 -121
-411 l0 -24 178 0 177 0 13 68 c36 192 161 321 350 361 29 6 107 11 173 11
206 0 347 -42 432 -128 70 -71 91 -127 91 -242 0 -54 -5 -112 -13 -135 -19
-58 -66 -103 -126 -120 -27 -8 -214 -35 -415 -60 -375 -46 -473 -64 -572 -108
-196 -87 -342 -263 -382 -459 -20 -97 -20 -273 -1 -356 40 -168 175 -333 336
-410 129 -62 199 -76 374 -76 83 0 179 6 215 13 200 39 366 129 542 293 l58
54 6 -36 c16 -94 56 -181 105 -227 84 -78 291 -100 459 -49 l45 13 3 143 c2
125 1 142 -13 136 -8 -3 -44 -8 -78 -12 -73 -7 -115 8 -144 53 -17 25 -18 84
-23 793 l-5 765 -23 56 c-32 80 -74 139 -145 206 -152 141 -395 214 -707 212
-80 -1 -172 -5 -205 -10z m703 -1412 l-3 -233 -39 -79 c-57 -115 -145 -199
-279 -265 -222 -109 -451 -128 -614 -50 -105 50 -165 142 -182 280 -17 133 11
223 94 299 87 80 192 114 487 156 305 44 476 83 513 116 5 5 13 9 18 9 5 0 7
-103 5 -233z"/>
<path d="M20806 2594 c-148 -36 -319 -171 -426 -337 -30 -47 -58 -86 -62 -86
-5 -1 -8 85 -8 189 l0 190 -180 0 -180 0 0 -1145 0 -1145 195 0 195 0 0 713
c0 678 1 718 20 791 49 191 178 337 358 404 56 21 90 26 210 30 l142 5 0 197
c0 171 -2 199 -16 204 -28 11 -188 5 -248 -10z"/>
<path d="M15482 1648 c3 -828 5 -908 21 -963 74 -251 235 -403 493 -467 118
-29 340 -31 459 -4 192 43 370 173 471 346 10 16 22 30 26 30 4 0 8 -74 8
-165 l0 -165 180 0 180 0 0 1145 0 1145 -189 0 -190 0 -3 -712 -4 -713 -26
-97 c-74 -272 -236 -446 -455 -488 -93 -18 -265 -8 -335 19 -71 27 -161 107
-193 170 -51 101 -49 72 -55 971 l-5 845 -193 3 -193 2 3 -902z"/>
<path d="M40 1106 l0 -1106 1715 0 1715 0 0 515 0 515 -1245 0 -1245 0 -2 340
-3 341 -360 192 c-198 106 -408 219 -467 250 l-108 58 0 -1105z"/>
<path d="M11248 895 c-93 -35 -168 -114 -198 -209 -8 -23 -11 -72 -8 -125 3
-71 9 -95 33 -139 58 -106 159 -165 285 -166 108 -1 171 23 241 93 69 69 93
132 93 241 -1 125 -60 227 -166 285 -46 26 -65 30 -148 32 -64 2 -107 -2 -132
-12z"/>
</g>
</svg>
